<svg width="1083" height="329" viewBox="0 0 1083 329" fill="none" xmlns="http://www.w3.org/2000/svg">
<path d="M72.404 295.606H29.934C25.55 295.606 22.3533 294.601 20.344 292.592C18.3347 290.583 17.33 287.386 17.33 283.002V105.45C17.33 103.075 17.604 101.066 18.152 99.422C18.8827 97.778 19.8873 96.408 21.166 95.312L56.512 65.446C57.4253 64.7153 58.6127 64.1673 60.074 63.802C61.718 63.254 63.4533 62.98 65.28 62.98H187.484C191.868 62.98 195.065 63.9847 197.074 65.994C199.083 68.0033 200.088 71.2 200.088 75.584V108.19C200.088 110.565 199.723 112.574 198.992 114.218C198.444 115.862 197.531 117.232 196.252 118.328L165.564 143.81C169.765 143.81 172.871 144.815 174.88 146.824C176.889 148.833 177.894 152.03 177.894 156.414V189.294C177.894 191.669 177.529 193.678 176.798 195.322C176.25 196.966 175.337 198.336 174.058 199.432L138.438 229.024C137.707 229.755 136.52 230.394 134.876 230.942C133.415 231.49 131.771 231.764 129.944 231.764H120.354V253.136C120.354 255.511 119.989 257.52 119.258 259.164C118.71 260.808 117.797 262.178 116.518 263.274L80.898 292.866C80.1673 293.597 78.98 294.236 77.336 294.784C75.8747 295.332 74.2307 295.606 72.404 295.606ZM107.75 263C111.221 263 113.687 262.269 115.148 260.808C116.792 259.164 117.614 256.607 117.614 253.136V199.158H165.29C168.761 199.158 171.227 198.427 172.688 196.966C174.332 195.322 175.154 192.765 175.154 189.294V156.414C175.154 152.943 174.332 150.477 172.688 149.016C171.227 147.372 168.761 146.55 165.29 146.55H117.614V118.054H187.484C190.955 118.054 193.421 117.323 194.882 115.862C196.526 114.218 197.348 111.661 197.348 108.19V75.584C197.348 72.1133 196.526 69.6473 194.882 68.186C193.421 66.542 190.955 65.72 187.484 65.72H65.28C61.8093 65.72 59.252 66.542 57.608 68.186C56.1467 69.6473 55.416 72.1133 55.416 75.584V253.136C55.416 256.607 56.1467 259.164 57.608 260.808C59.252 262.269 61.8093 263 65.28 263H107.75ZM85.282 238.34V90.38H172.688V93.12H88.022V171.484H150.494V174.224H88.022V238.34H85.282ZM360.59 295.606H221.124C216.74 295.606 213.543 294.601 211.534 292.592C209.525 290.583 208.52 287.386 208.52 283.002V105.45C208.52 103.075 208.794 101.066 209.342 99.422C210.073 97.778 211.077 96.408 212.356 95.312L247.702 65.446C248.615 64.7153 249.803 64.1673 251.264 63.802C252.908 63.254 254.643 62.98 256.47 62.98H298.94C303.324 62.98 306.521 63.9847 308.53 65.994C310.539 68.0033 311.544 71.2 311.544 75.584V187.102L312.092 186.554L347.438 156.688C348.351 155.957 349.539 155.409 351 155.044C352.644 154.496 354.379 154.222 356.206 154.222H395.936C400.32 154.222 403.517 155.227 405.526 157.236C407.535 159.245 408.54 162.442 408.54 166.826V253.136C408.54 255.511 408.175 257.52 407.444 259.164C406.896 260.808 405.983 262.178 404.704 263.274L369.084 292.866C368.353 293.597 367.166 294.236 365.522 294.784C364.061 295.332 362.417 295.606 360.59 295.606ZM395.936 263C399.407 263 401.873 262.269 403.334 260.808C404.978 259.164 405.8 256.607 405.8 253.136V166.826C405.8 163.355 404.978 160.889 403.334 159.428C401.873 157.784 399.407 156.962 395.936 156.962H356.206C352.735 156.962 350.178 157.784 348.534 159.428C347.073 160.889 346.342 163.355 346.342 166.826V211.214H308.804V75.584C308.804 72.1133 307.982 69.6473 306.338 68.186C304.877 66.542 302.411 65.72 298.94 65.72H256.47C252.999 65.72 250.442 66.542 248.798 68.186C247.337 69.6473 246.606 72.1133 246.606 75.584V253.136C246.606 256.607 247.337 259.164 248.798 260.808C250.442 262.269 252.999 263 256.47 263H395.936ZM276.472 238.34V90.38H279.212V235.6H374.564V181.622H377.304V238.34H276.472ZM577.029 282.454C570.635 287.934 561.685 292.135 550.177 295.058C538.669 298.163 523.873 299.716 505.789 299.716C487.887 299.716 473.183 297.798 461.675 293.962C450.349 290.309 441.399 285.377 434.823 279.166C428.429 272.955 423.954 265.831 421.397 257.794C419.022 249.757 417.835 241.445 417.835 232.86V147.646C417.835 139.243 419.022 131.48 421.397 124.356C423.771 117.049 428.064 110.839 434.275 105.724L469.895 76.132C476.288 70.652 485.147 66.4507 496.473 63.528C507.981 60.4227 522.868 58.87 541.135 58.87C559.036 58.87 573.649 60.3313 584.975 63.254C596.483 66.1767 605.433 70.2867 611.827 75.584C618.403 80.6987 622.878 86.9093 625.253 94.216C627.627 101.34 628.815 109.195 628.815 117.78V211.214C628.815 219.617 627.627 227.38 625.253 234.504C622.878 241.628 618.585 247.747 612.375 252.862L577.029 282.454ZM626.075 211.214V117.78C626.075 109.377 624.796 101.797 622.239 95.038C619.864 88.0967 615.48 82.16 609.087 77.228C602.876 72.296 594.199 68.46 583.057 65.72C572.097 62.98 558.123 61.61 541.135 61.61C524.147 61.61 510.081 62.98 498.939 65.72C487.796 68.46 479.028 72.296 472.635 77.228C466.424 82.16 462.04 88.0967 459.483 95.038C457.108 101.797 455.921 109.377 455.921 117.78V211.214C455.921 219.617 457.108 227.289 459.483 234.23C462.04 240.989 466.424 246.834 472.635 251.766C479.028 256.515 487.796 260.26 498.939 263C510.081 265.74 524.147 267.11 541.135 267.11C558.123 267.11 572.097 265.74 583.057 263C594.199 260.26 602.876 256.515 609.087 251.766C615.48 246.834 619.864 240.989 622.239 234.23C624.796 227.289 626.075 219.617 626.075 211.214ZM596.209 204.912C596.209 215.872 592.281 224.823 584.427 231.764C576.572 238.523 561.959 241.902 540.587 241.902C519.215 241.902 504.693 238.523 497.021 231.764C489.349 224.823 485.513 215.872 485.513 204.912V124.082C485.513 113.122 489.349 104.263 497.021 97.504C504.693 90.5627 519.215 87.092 540.587 87.092C561.959 87.092 576.572 90.5627 584.427 97.504C592.281 104.263 596.209 113.122 596.209 124.082V204.912ZM488.253 204.912C488.253 215.141 491.906 223.453 499.213 229.846C506.519 236.057 520.311 239.162 540.587 239.162C560.863 239.162 574.745 236.057 582.235 229.846C589.724 223.453 593.469 215.141 593.469 204.912V124.082C593.469 113.853 589.724 105.633 582.235 99.422C574.745 93.0287 560.863 89.832 540.587 89.832C520.311 89.832 506.519 93.0287 499.213 99.422C491.906 105.633 488.253 113.853 488.253 124.082V204.912ZM518.119 201.35V127.644C518.119 124.173 519.489 121.251 522.229 118.876C524.969 116.319 531.271 115.04 541.135 115.04C550.999 115.04 557.301 116.319 560.041 118.876C562.781 121.251 564.151 124.173 564.151 127.644V201.35C564.151 205.003 562.781 208.109 560.041 210.666C557.301 213.041 550.999 214.228 541.135 214.228C531.271 214.228 524.969 213.041 522.229 210.666C519.489 208.109 518.119 205.003 518.119 201.35ZM520.859 201.35C520.859 203.177 521.224 204.821 521.955 206.282C522.685 207.561 524.055 208.657 526.065 209.57V157.51C526.065 155.683 525.699 154.131 524.969 152.852C524.238 151.391 522.868 150.295 520.859 149.564V201.35ZM739.245 295.606H694.857C690.473 295.606 687.276 294.601 685.267 292.592C683.258 290.583 682.253 287.386 682.253 283.002V151.208H644.715C640.331 151.208 637.134 150.203 635.125 148.194C633.116 146.185 632.111 142.988 632.111 138.604V105.45C632.111 103.075 632.385 101.066 632.933 99.422C633.664 97.778 634.668 96.408 635.947 95.312L671.293 65.446C672.206 64.7153 673.394 64.1673 674.855 63.802C676.499 63.254 678.234 62.98 680.061 62.98H824.733C829.117 62.98 832.314 63.9847 834.323 65.994C836.332 68.0033 837.337 71.2 837.337 75.584V108.738C837.337 111.113 836.972 113.122 836.241 114.766C835.693 116.41 834.78 117.78 833.501 118.876L797.881 148.468C797.15 149.199 795.963 149.838 794.319 150.386C792.858 150.934 791.214 151.208 789.387 151.208H787.195V253.136C787.195 255.511 786.83 257.52 786.099 259.164C785.551 260.808 784.638 262.178 783.359 263.274L747.739 292.866C747.008 293.597 745.821 294.236 744.177 294.784C742.716 295.332 741.072 295.606 739.245 295.606ZM774.591 263C778.062 263 780.528 262.269 781.989 260.808C783.633 259.164 784.455 256.607 784.455 253.136V118.602H824.733C828.204 118.602 830.67 117.871 832.131 116.41C833.775 114.766 834.597 112.209 834.597 108.738V75.584C834.597 72.1133 833.775 69.6473 832.131 68.186C830.67 66.542 828.204 65.72 824.733 65.72H680.061C676.59 65.72 674.033 66.542 672.389 68.186C670.928 69.6473 670.197 72.1133 670.197 75.584V108.738C670.197 112.209 670.928 114.766 672.389 116.41C674.033 117.871 676.59 118.602 680.061 118.602H720.339V253.136C720.339 256.607 721.07 259.164 722.531 260.808C724.175 262.269 726.732 263 730.203 263H774.591ZM751.027 238.34V93.12H694.857V90.38H809.937V93.12H753.767V238.34H751.027ZM984.711 295.606H857.575C853.191 295.606 849.994 294.601 847.985 292.592C845.975 290.583 844.971 287.386 844.971 283.002V105.45C844.971 103.075 845.245 101.066 845.793 99.422C846.523 97.778 847.528 96.408 848.807 95.312L884.153 65.446C885.066 64.7153 886.253 64.1673 887.715 63.802C889.359 63.254 891.094 62.98 892.921 62.98H1020.06C1024.44 62.98 1027.64 63.9847 1029.65 65.994C1031.66 68.0033 1032.66 71.2 1032.66 75.584V107.642C1032.66 110.017 1032.3 112.026 1031.56 113.67C1031.02 115.314 1030.1 116.684 1028.82 117.78L1005.26 137.234C1007.09 138.147 1008.37 139.517 1009.1 141.344C1010.01 143.171 1010.47 145.545 1010.47 148.468V177.786C1010.47 180.161 1010.1 182.17 1009.37 183.814C1008.82 185.458 1007.91 186.828 1006.63 187.924L982.245 208.474H1020.06C1024.44 208.474 1027.64 209.479 1029.65 211.488C1031.66 213.497 1032.66 216.694 1032.66 221.078V253.136C1032.66 255.511 1032.3 257.52 1031.56 259.164C1031.02 260.808 1030.1 262.178 1028.82 263.274L993.205 292.866C992.474 293.597 991.287 294.236 989.643 294.784C988.181 295.332 986.537 295.606 984.711 295.606ZM1020.06 263C1023.53 263 1025.99 262.269 1027.45 260.808C1029.1 259.164 1029.92 256.607 1029.92 253.136V221.078C1029.92 217.607 1029.1 215.141 1027.45 213.68C1025.99 212.036 1023.53 211.214 1020.06 211.214H944.433V187.65H997.863C1001.33 187.65 1003.8 186.919 1005.26 185.458C1006.9 183.814 1007.73 181.257 1007.73 177.786V148.468C1007.73 144.997 1006.9 142.531 1005.26 141.07C1003.8 139.426 1001.33 138.604 997.863 138.604H944.433V117.506H1020.06C1023.53 117.506 1025.99 116.775 1027.45 115.314C1029.1 113.67 1029.92 111.113 1029.92 107.642V75.584C1029.92 72.1133 1029.1 69.6473 1027.45 68.186C1025.99 66.542 1023.53 65.72 1020.06 65.72H892.921C889.45 65.72 886.893 66.542 885.249 68.186C883.787 69.6473 883.057 72.1133 883.057 75.584V253.136C883.057 256.607 883.787 259.164 885.249 260.808C886.893 262.269 889.45 263 892.921 263H1020.06ZM1005.26 235.6V238.34H912.923V90.38H1005.26V93.12H915.663V161.894H983.067V164.634H915.663V235.6H1005.26Z" fill="#FAF1F1"/>
<g filter="url(#filter0_d)">
<path d="M69.404 289.606H26.934C22.55 289.606 19.3533 288.601 17.344 286.592C15.3347 284.583 14.33 281.386 14.33 277.002V99.45C14.33 97.0753 14.604 95.066 15.152 93.422C15.8827 91.778 16.8873 90.408 18.166 89.312L53.512 59.446C54.4253 58.7153 55.6127 58.1673 57.074 57.802C58.718 57.254 60.4533 56.98 62.28 56.98H184.484C188.868 56.98 192.065 57.9847 194.074 59.994C196.083 62.0033 197.088 65.2 197.088 69.584V102.19C197.088 104.565 196.723 106.574 195.992 108.218C195.444 109.862 194.531 111.232 193.252 112.328L162.564 137.81C166.765 137.81 169.871 138.815 171.88 140.824C173.889 142.833 174.894 146.03 174.894 150.414V183.294C174.894 185.669 174.529 187.678 173.798 189.322C173.25 190.966 172.337 192.336 171.058 193.432L135.438 223.024C134.707 223.755 133.52 224.394 131.876 224.942C130.415 225.49 128.771 225.764 126.944 225.764H117.354V247.136C117.354 249.511 116.989 251.52 116.258 253.164C115.71 254.808 114.797 256.178 113.518 257.274L77.898 286.866C77.1673 287.597 75.98 288.236 74.336 288.784C72.8747 289.332 71.2307 289.606 69.404 289.606ZM104.75 257C108.221 257 110.687 256.269 112.148 254.808C113.792 253.164 114.614 250.607 114.614 247.136V193.158H162.29C165.761 193.158 168.227 192.427 169.688 190.966C171.332 189.322 172.154 186.765 172.154 183.294V150.414C172.154 146.943 171.332 144.477 169.688 143.016C168.227 141.372 165.761 140.55 162.29 140.55H114.614V112.054H184.484C187.955 112.054 190.421 111.323 191.882 109.862C193.526 108.218 194.348 105.661 194.348 102.19V69.584C194.348 66.1133 193.526 63.6473 191.882 62.186C190.421 60.542 187.955 59.72 184.484 59.72H62.28C58.8093 59.72 56.252 60.542 54.608 62.186C53.1467 63.6473 52.416 66.1133 52.416 69.584V247.136C52.416 250.607 53.1467 253.164 54.608 254.808C56.252 256.269 58.8093 257 62.28 257H104.75ZM82.282 232.34V84.38H169.688V87.12H85.022V165.484H147.494V168.224H85.022V232.34H82.282ZM357.59 289.606H218.124C213.74 289.606 210.543 288.601 208.534 286.592C206.525 284.583 205.52 281.386 205.52 277.002V99.45C205.52 97.0753 205.794 95.066 206.342 93.422C207.073 91.778 208.077 90.408 209.356 89.312L244.702 59.446C245.615 58.7153 246.803 58.1673 248.264 57.802C249.908 57.254 251.643 56.98 253.47 56.98H295.94C300.324 56.98 303.521 57.9847 305.53 59.994C307.539 62.0033 308.544 65.2 308.544 69.584V181.102L309.092 180.554L344.438 150.688C345.351 149.957 346.539 149.409 348 149.044C349.644 148.496 351.379 148.222 353.206 148.222H392.936C397.32 148.222 400.517 149.227 402.526 151.236C404.535 153.245 405.54 156.442 405.54 160.826V247.136C405.54 249.511 405.175 251.52 404.444 253.164C403.896 254.808 402.983 256.178 401.704 257.274L366.084 286.866C365.353 287.597 364.166 288.236 362.522 288.784C361.061 289.332 359.417 289.606 357.59 289.606ZM392.936 257C396.407 257 398.873 256.269 400.334 254.808C401.978 253.164 402.8 250.607 402.8 247.136V160.826C402.8 157.355 401.978 154.889 400.334 153.428C398.873 151.784 396.407 150.962 392.936 150.962H353.206C349.735 150.962 347.178 151.784 345.534 153.428C344.073 154.889 343.342 157.355 343.342 160.826V205.214H305.804V69.584C305.804 66.1133 304.982 63.6473 303.338 62.186C301.877 60.542 299.411 59.72 295.94 59.72H253.47C249.999 59.72 247.442 60.542 245.798 62.186C244.337 63.6473 243.606 66.1133 243.606 69.584V247.136C243.606 250.607 244.337 253.164 245.798 254.808C247.442 256.269 249.999 257 253.47 257H392.936ZM273.472 232.34V84.38H276.212V229.6H371.564V175.622H374.304V232.34H273.472ZM574.029 276.454C567.635 281.934 558.685 286.135 547.177 289.058C535.669 292.163 520.873 293.716 502.789 293.716C484.887 293.716 470.183 291.798 458.675 287.962C447.349 284.309 438.399 279.377 431.823 273.166C425.429 266.955 420.954 259.831 418.397 251.794C416.022 243.757 414.835 235.445 414.835 226.86V141.646C414.835 133.243 416.022 125.48 418.397 118.356C420.771 111.049 425.064 104.839 431.275 99.724L466.895 70.132C473.288 64.652 482.147 60.4507 493.473 57.528C504.981 54.4227 519.868 52.87 538.135 52.87C556.036 52.87 570.649 54.3313 581.975 57.254C593.483 60.1767 602.433 64.2867 608.827 69.584C615.403 74.6987 619.878 80.9093 622.253 88.216C624.627 95.34 625.815 103.195 625.815 111.78V205.214C625.815 213.617 624.627 221.38 622.253 228.504C619.878 235.628 615.585 241.747 609.375 246.862L574.029 276.454ZM623.075 205.214V111.78C623.075 103.377 621.796 95.7967 619.239 89.038C616.864 82.0967 612.48 76.16 606.087 71.228C599.876 66.296 591.199 62.46 580.057 59.72C569.097 56.98 555.123 55.61 538.135 55.61C521.147 55.61 507.081 56.98 495.939 59.72C484.796 62.46 476.028 66.296 469.635 71.228C463.424 76.16 459.04 82.0967 456.483 89.038C454.108 95.7967 452.921 103.377 452.921 111.78V205.214C452.921 213.617 454.108 221.289 456.483 228.23C459.04 234.989 463.424 240.834 469.635 245.766C476.028 250.515 484.796 254.26 495.939 257C507.081 259.74 521.147 261.11 538.135 261.11C555.123 261.11 569.097 259.74 580.057 257C591.199 254.26 599.876 250.515 606.087 245.766C612.48 240.834 616.864 234.989 619.239 228.23C621.796 221.289 623.075 213.617 623.075 205.214ZM593.209 198.912C593.209 209.872 589.281 218.823 581.427 225.764C573.572 232.523 558.959 235.902 537.587 235.902C516.215 235.902 501.693 232.523 494.021 225.764C486.349 218.823 482.513 209.872 482.513 198.912V118.082C482.513 107.122 486.349 98.2627 494.021 91.504C501.693 84.5627 516.215 81.092 537.587 81.092C558.959 81.092 573.572 84.5627 581.427 91.504C589.281 98.2627 593.209 107.122 593.209 118.082V198.912ZM485.253 198.912C485.253 209.141 488.906 217.453 496.213 223.846C503.519 230.057 517.311 233.162 537.587 233.162C557.863 233.162 571.745 230.057 579.235 223.846C586.724 217.453 590.469 209.141 590.469 198.912V118.082C590.469 107.853 586.724 99.6327 579.235 93.422C571.745 87.0287 557.863 83.832 537.587 83.832C517.311 83.832 503.519 87.0287 496.213 93.422C488.906 99.6327 485.253 107.853 485.253 118.082V198.912ZM515.119 195.35V121.644C515.119 118.173 516.489 115.251 519.229 112.876C521.969 110.319 528.271 109.04 538.135 109.04C547.999 109.04 554.301 110.319 557.041 112.876C559.781 115.251 561.151 118.173 561.151 121.644V195.35C561.151 199.003 559.781 202.109 557.041 204.666C554.301 207.041 547.999 208.228 538.135 208.228C528.271 208.228 521.969 207.041 519.229 204.666C516.489 202.109 515.119 199.003 515.119 195.35ZM517.859 195.35C517.859 197.177 518.224 198.821 518.955 200.282C519.685 201.561 521.055 202.657 523.065 203.57V151.51C523.065 149.683 522.699 148.131 521.969 146.852C521.238 145.391 519.868 144.295 517.859 143.564V195.35ZM736.245 289.606H691.857C687.473 289.606 684.276 288.601 682.267 286.592C680.258 284.583 679.253 281.386 679.253 277.002V145.208H641.715C637.331 145.208 634.134 144.203 632.125 142.194C630.116 140.185 629.111 136.988 629.111 132.604V99.45C629.111 97.0753 629.385 95.066 629.933 93.422C630.664 91.778 631.668 90.408 632.947 89.312L668.293 59.446C669.206 58.7153 670.394 58.1673 671.855 57.802C673.499 57.254 675.234 56.98 677.061 56.98H821.733C826.117 56.98 829.314 57.9847 831.323 59.994C833.332 62.0033 834.337 65.2 834.337 69.584V102.738C834.337 105.113 833.972 107.122 833.241 108.766C832.693 110.41 831.78 111.78 830.501 112.876L794.881 142.468C794.15 143.199 792.963 143.838 791.319 144.386C789.858 144.934 788.214 145.208 786.387 145.208H784.195V247.136C784.195 249.511 783.83 251.52 783.099 253.164C782.551 254.808 781.638 256.178 780.359 257.274L744.739 286.866C744.008 287.597 742.821 288.236 741.177 288.784C739.716 289.332 738.072 289.606 736.245 289.606ZM771.591 257C775.062 257 777.528 256.269 778.989 254.808C780.633 253.164 781.455 250.607 781.455 247.136V112.602H821.733C825.204 112.602 827.67 111.871 829.131 110.41C830.775 108.766 831.597 106.209 831.597 102.738V69.584C831.597 66.1133 830.775 63.6473 829.131 62.186C827.67 60.542 825.204 59.72 821.733 59.72H677.061C673.59 59.72 671.033 60.542 669.389 62.186C667.928 63.6473 667.197 66.1133 667.197 69.584V102.738C667.197 106.209 667.928 108.766 669.389 110.41C671.033 111.871 673.59 112.602 677.061 112.602H717.339V247.136C717.339 250.607 718.07 253.164 719.531 254.808C721.175 256.269 723.732 257 727.203 257H771.591ZM748.027 232.34V87.12H691.857V84.38H806.937V87.12H750.767V232.34H748.027ZM981.711 289.606H854.575C850.191 289.606 846.994 288.601 844.985 286.592C842.975 284.583 841.971 281.386 841.971 277.002V99.45C841.971 97.0753 842.245 95.066 842.793 93.422C843.523 91.778 844.528 90.408 845.807 89.312L881.153 59.446C882.066 58.7153 883.253 58.1673 884.715 57.802C886.359 57.254 888.094 56.98 889.921 56.98H1017.06C1021.44 56.98 1024.64 57.9847 1026.65 59.994C1028.66 62.0033 1029.66 65.2 1029.66 69.584V101.642C1029.66 104.017 1029.3 106.026 1028.56 107.67C1028.02 109.314 1027.1 110.684 1025.82 111.78L1002.26 131.234C1004.09 132.147 1005.37 133.517 1006.1 135.344C1007.01 137.171 1007.47 139.545 1007.47 142.468V171.786C1007.47 174.161 1007.1 176.17 1006.37 177.814C1005.82 179.458 1004.91 180.828 1003.63 181.924L979.245 202.474H1017.06C1021.44 202.474 1024.64 203.479 1026.65 205.488C1028.66 207.497 1029.66 210.694 1029.66 215.078V247.136C1029.66 249.511 1029.3 251.52 1028.56 253.164C1028.02 254.808 1027.1 256.178 1025.82 257.274L990.205 286.866C989.474 287.597 988.287 288.236 986.643 288.784C985.181 289.332 983.537 289.606 981.711 289.606ZM1017.06 257C1020.53 257 1022.99 256.269 1024.45 254.808C1026.1 253.164 1026.92 250.607 1026.92 247.136V215.078C1026.92 211.607 1026.1 209.141 1024.45 207.68C1022.99 206.036 1020.53 205.214 1017.06 205.214H941.433V181.65H994.863C998.333 181.65 1000.8 180.919 1002.26 179.458C1003.9 177.814 1004.73 175.257 1004.73 171.786V142.468C1004.73 138.997 1003.9 136.531 1002.26 135.07C1000.8 133.426 998.333 132.604 994.863 132.604H941.433V111.506H1017.06C1020.53 111.506 1022.99 110.775 1024.45 109.314C1026.1 107.67 1026.92 105.113 1026.92 101.642V69.584C1026.92 66.1133 1026.1 63.6473 1024.45 62.186C1022.99 60.542 1020.53 59.72 1017.06 59.72H889.921C886.45 59.72 883.893 60.542 882.249 62.186C880.787 63.6473 880.057 66.1133 880.057 69.584V247.136C880.057 250.607 880.787 253.164 882.249 254.808C883.893 256.269 886.45 257 889.921 257H1017.06ZM1002.26 229.6V232.34H909.923V84.38H1002.26V87.12H912.663V155.894H980.067V158.634H912.663V229.6H1002.26Z" fill="black"/>
</g>
<defs>
<filter id="filter0_d" x="0.330078" y="44.87" width="1049.33" height="274.846" filterUnits="userSpaceOnUse" color-interpolation-filters="sRGB">
<feFlood flood-opacity="0" result="BackgroundImageFix"/>
<feColorMatrix in="SourceAlpha" type="matrix" values="0 0 0 0 0 0 0 0 0 0 0 0 0 0 0 0 0 0 127 0"/>
<feOffset dx="3" dy="9"/>
<feGaussianBlur stdDeviation="8.5"/>
<feColorMatrix type="matrix" values="0 0 0 0 0 0 0 0 0 0 0 0 0 0 0 0 0 0 0.25 0"/>
<feBlend mode="normal" in2="BackgroundImageFix" result="effect1_dropShadow"/>
<feBlend mode="normal" in="SourceGraphic" in2="effect1_dropShadow" result="shape"/>
</filter>
</defs>
</svg>
